<?xml version="1.0" encoding="utf-8"?>
<!-- Generator: Adobe Illustrator 22.0.0, SVG Export Plug-In . SVG Version: 6.00 Build 0)  -->
<svg version="1.1" xmlns="http://www.w3.org/2000/svg" xmlns:xlink="http://www.w3.org/1999/xlink" x="0px" y="0px"
	 viewBox="0 0 257 177" style="enable-background:new 0 0 257 177;" xml:space="preserve">
<style type="text/css">
	.st0{display:none;}
	.st1{display:inline;fill:#040006;}
	.st2{display:inline;fill:none;stroke:#000000;stroke-width:15;stroke-miterlimit:10;}
	.st3{display:inline;}
	.st4{font-family:'WorkSans-ExtraLight';}
	.st5{font-size:24.9013px;}
	.st6{fill:none;stroke:#FFFFFF;stroke-width:15;stroke-miterlimit:10;}
	.st7{fill:#FFFFFF;}
</style>
<g id="Layer_5" class="st0">
	<rect class="st1" width="257" height="177"/>
</g>
<g id="Layer_2" class="st0">
	<line class="st2" x1="57.2" y1="21.4" x2="57.2" y2="123.7"/>
	<path class="st2" d="M184.6,100.4v15.4c0,4.7,4.1,8.4,9.1,8.2c15.4-0.7,48.3-7.3,48.3-48.4c-2.3-55.6-57.2-54.2-57.2-54.2l-4.8,0
		c-2.1,0-4,0.8-5.5,2.2L146.3,59c-6.4,6.2-17.1,6.2-23.5,0L97.3,26.1c-3.1-3-7.3-4.7-11.7-4.7H34.3c-9,0-16.4,6.9-16.4,15.4v13"/>
</g>
<g id="Layer_3_copy" class="st0">
	<g class="st3">
		<path d="M23.4,150.4h-6.6v15.8H16v-15.8H9.4v-0.6h14V150.4z"/>
		<path d="M36.4,158.1v8.1h-0.7v-8c0-2.7-1.7-4.1-4.4-4.1c-2.9,0-5.2,2-5.2,4.8v7.3h-0.7v-18.2h0.7v8.7c0.7-2,2.8-3.2,5.3-3.2
			C34.4,153.5,36.4,155.2,36.4,158.1z"/>
		<path d="M51.6,160.4H40.7c0.1,3.4,2.1,5.5,5.4,5.5c2.2,0,4-1,4.8-2.6l0.6,0.3c-1,1.8-2.9,2.9-5.4,2.9c-3.9,0-6.2-2.4-6.2-6.5
			s2.2-6.5,6-6.5c3.6,0,5.7,2.5,5.7,6.4C51.7,160.1,51.6,160.3,51.6,160.4z M40.7,159.8H51c-0.1-3.5-1.9-5.6-5-5.6
			C42.7,154.2,40.8,156.3,40.7,159.8z"/>
		<path d="M79.3,166.3h-0.7v-13.7l0.1-2l-6.9,15.6H71l-6.9-15.6h0l0.1,2v13.7h-0.7v-16.4h1.1l6.4,14.2l0.5,1.4h0l0.5-1.3l6.4-14.3
			h1.1V166.3z"/>
		<path d="M95.8,160c0,4-2.3,6.5-6.2,6.5c-3.9,0-6.3-2.4-6.3-6.5s2.4-6.5,6.3-6.5C93.4,153.6,95.8,156,95.8,160z M84,160
			c0,3.7,2.1,5.9,5.5,5.9c3.4,0,5.5-2.2,5.5-5.9s-2.1-5.9-5.5-5.9C86.1,154.2,84,156.4,84,160z"/>
		<path d="M109.3,153.8l-5.6,12.5H103l-5.6-12.5h0.9l5.1,11.7l5.1-11.7H109.3z"/>
		<path d="M111.8,150.6c0-0.4,0.3-0.7,0.8-0.7c0.5,0,0.8,0.3,0.8,0.7c0,0.4-0.3,0.7-0.8,0.7C112.1,151.4,111.8,151.1,111.8,150.6z
			 M112.9,166.3h-0.7v-12.5h0.7V166.3z"/>
		<path d="M128.3,160.4h-10.9c0.1,3.4,2.1,5.5,5.4,5.5c2.2,0,4-1,4.8-2.6l0.6,0.3c-1,1.8-2.9,2.9-5.4,2.9c-3.9,0-6.2-2.4-6.2-6.5
			s2.2-6.5,6-6.5c3.6,0,5.7,2.5,5.7,6.4C128.4,160.1,128.3,160.3,128.3,160.4z M117.4,159.8h10.3c-0.1-3.5-1.9-5.6-5-5.6
			C119.4,154.2,117.5,156.3,117.4,159.8z"/>
		<path d="M154.3,157.8c0,5.5-3,8.4-8.7,8.4h-5.5v-16.4h5.5C151.3,149.8,154.3,152.6,154.3,157.8z M153.5,157.8
			c0-4.8-2.7-7.4-7.9-7.4h-4.7v15.2h4.7C150.8,165.6,153.5,162.9,153.5,157.8z"/>
		<path d="M169.7,165.7l-0.1,0.6c-0.3,0.1-0.6,0.2-1.1,0.2c-1,0-2-0.4-2-2.4c-0.8,1.6-3.1,2.4-5.2,2.4c-2.6,0-4.2-1.1-4.2-3
			c0-1.9,1.5-3.1,5-3.7l4.5-0.8v-1.4c0-2.2-1.4-3.5-4-3.5c-2.3,0-3.8,0.8-4.6,2.8l-0.6-0.4c0.8-2,2.5-3,5.2-3c3,0,4.8,1.4,4.8,4.1
			v6.7c0,1.1,0.5,1.6,1.4,1.6C169.1,165.9,169.5,165.9,169.7,165.7z M166.6,162.4v-2.8l-4.2,0.7c-3.3,0.5-4.5,1.5-4.5,3.1
			c0,1.5,1.3,2.4,3.6,2.4C163.6,165.9,166.6,164.8,166.6,162.4z"/>
		<path d="M178.6,165.5c-0.6,0.5-1.6,1-2.7,1c-2.1,0-3.3-1.1-3.3-3.4v-8.7h-2.7v-0.6h2.7v-3.2l0.7-0.2v3.4h5.1v0.6h-5.1v8.7
			c0,1.8,0.9,2.8,2.6,2.8c1,0,1.7-0.3,2.3-0.9L178.6,165.5z"/>
		<path d="M192.6,165.7l-0.1,0.6c-0.3,0.1-0.6,0.2-1.1,0.2c-1,0-2-0.4-2-2.4c-0.8,1.6-3.1,2.4-5.2,2.4c-2.6,0-4.2-1.1-4.2-3
			c0-1.9,1.5-3.1,5-3.7l4.5-0.8v-1.4c0-2.2-1.4-3.5-4-3.5c-2.3,0-3.8,0.8-4.6,2.8l-0.6-0.4c0.8-2,2.5-3,5.2-3c3,0,4.8,1.4,4.8,4.1
			v6.7c0,1.1,0.5,1.6,1.4,1.6C192,165.9,192.4,165.9,192.6,165.7z M189.5,162.4v-2.8l-4.2,0.7c-3.3,0.5-4.5,1.5-4.5,3.1
			c0,1.5,1.3,2.4,3.6,2.4C186.5,165.9,189.5,164.8,189.5,162.4z"/>
		<path d="M207.1,160c0,4.1-2.3,6.5-6.1,6.5c-2.6,0-4.6-1.3-5.2-3.6l0,3.4h-0.7v-18.2h0.7v9c0.7-2.2,2.7-3.5,5.2-3.5
			C204.8,153.6,207.1,156,207.1,160z M206.4,160c0-3.7-2-5.9-5.5-5.9c-3.1,0-5.1,2.2-5.1,5.8v0.2c0,3.6,2,5.8,5.1,5.8
			C204.4,165.9,206.4,163.7,206.4,160z"/>
		<path d="M222.4,165.7l-0.1,0.6c-0.3,0.1-0.6,0.2-1.1,0.2c-1,0-2-0.4-2-2.4c-0.8,1.6-3.1,2.4-5.2,2.4c-2.6,0-4.2-1.1-4.2-3
			c0-1.9,1.5-3.1,5-3.7l4.5-0.8v-1.4c0-2.2-1.4-3.5-4-3.5c-2.3,0-3.8,0.8-4.6,2.8l-0.6-0.4c0.8-2,2.5-3,5.2-3c3,0,4.8,1.4,4.8,4.1
			v6.7c0,1.1,0.5,1.6,1.4,1.6C221.8,165.9,222.2,165.9,222.4,165.7z M219.3,162.4v-2.8l-4.2,0.7c-3.3,0.5-4.5,1.5-4.5,3.1
			c0,1.5,1.3,2.4,3.6,2.4C216.3,165.9,219.3,164.8,219.3,162.4z"/>
		<path d="M223.6,163.5l0.6-0.3c0.5,1.8,2.4,2.7,4.9,2.7c2.7,0,4.4-1.1,4.4-2.8c0-1.4-1.1-2.2-4.3-2.7c-3.8-0.6-5-1.5-5-3.4
			c0-1.9,2.1-3.5,5-3.5c2.7,0,4.4,0.9,5,3.1l-0.6,0.3c-0.5-2-2-2.8-4.3-2.8c-2.5,0-4.2,1.2-4.2,2.7c0,1.5,1.1,2.3,4.5,2.9
			c3.6,0.6,4.9,1.5,4.9,3.3c0,2.1-2,3.4-5.2,3.4C226.4,166.5,224.2,165.5,223.6,163.5z"/>
		<path d="M248.6,160.4h-10.9c0.1,3.4,2.1,5.5,5.4,5.5c2.2,0,4-1,4.8-2.6l0.6,0.3c-1,1.8-2.9,2.9-5.4,2.9c-3.9,0-6.2-2.4-6.2-6.5
			s2.2-6.5,6-6.5c3.6,0,5.7,2.5,5.7,6.4C248.7,160.1,248.6,160.3,248.6,160.4z M237.7,159.8H248c-0.1-3.5-1.9-5.6-5-5.6
			C239.7,154.2,237.8,156.3,237.7,159.8z"/>
	</g>
</g>
<g id="Layer_3" class="st0">
	<text transform="matrix(1.0692 0 0 1 8.9995 166.2578)" class="st3 st4 st5">The Movie Database</text>
</g>
<g id="Layer_4">
	<line class="st6" x1="57.2" y1="21.4" x2="57.2" y2="123.7"/>
	<path class="st6" d="M184.6,100.4v15.4c0,4.7,4.1,8.4,9.1,8.2c15.4-0.7,48.3-7.3,48.3-48.4c-2.3-55.6-57.2-54.2-57.2-54.2l-4.8,0
		c-2.1,0-4,0.8-5.5,2.2L146.3,59c-6.4,6.2-17.1,6.2-23.5,0L97.3,26.1c-3.1-3-7.3-4.7-11.7-4.7H34.3c-9,0-16.4,6.9-16.4,15.4v13"/>
	<g>
		<path class="st7" d="M23.4,150.4h-6.6v15.8H16v-15.8H9.4v-0.6h14V150.4z"/>
		<path class="st7" d="M36.4,158.1v8.1h-0.7v-8c0-2.7-1.7-4.1-4.4-4.1c-2.9,0-5.2,2-5.2,4.8v7.3h-0.7v-18.2h0.7v8.7
			c0.7-2,2.8-3.2,5.3-3.2C34.4,153.5,36.4,155.2,36.4,158.1z"/>
		<path class="st7" d="M51.6,160.4H40.7c0.1,3.4,2.1,5.5,5.4,5.5c2.2,0,4-1,4.8-2.6l0.6,0.3c-1,1.8-2.9,2.9-5.4,2.9
			c-3.9,0-6.2-2.4-6.2-6.5s2.2-6.5,6-6.5c3.6,0,5.7,2.5,5.7,6.4C51.7,160.1,51.6,160.3,51.6,160.4z M40.7,159.8H51
			c-0.1-3.5-1.9-5.6-5-5.6C42.7,154.2,40.8,156.3,40.7,159.8z"/>
		<path class="st7" d="M79.3,166.3h-0.7v-13.7l0.1-2l-6.9,15.6H71l-6.9-15.6h0l0.1,2v13.7h-0.7v-16.4h1.1l6.4,14.2l0.5,1.4h0
			l0.5-1.3l6.4-14.3h1.1V166.3z"/>
		<path class="st7" d="M95.8,160c0,4-2.3,6.5-6.2,6.5c-3.9,0-6.3-2.4-6.3-6.5s2.4-6.5,6.3-6.5C93.4,153.6,95.8,156,95.8,160z
			 M84,160c0,3.7,2.1,5.9,5.5,5.9c3.4,0,5.5-2.2,5.5-5.9s-2.1-5.9-5.5-5.9C86.1,154.2,84,156.4,84,160z"/>
		<path class="st7" d="M109.3,153.8l-5.6,12.5H103l-5.6-12.5h0.9l5.1,11.7l5.1-11.7H109.3z"/>
		<path class="st7" d="M111.8,150.6c0-0.4,0.3-0.7,0.8-0.7c0.5,0,0.8,0.3,0.8,0.7c0,0.4-0.3,0.7-0.8,0.7
			C112.1,151.4,111.8,151.1,111.8,150.6z M112.9,166.3h-0.7v-12.5h0.7V166.3z"/>
		<path class="st7" d="M128.3,160.4h-10.9c0.1,3.4,2.1,5.5,5.4,5.5c2.2,0,4-1,4.8-2.6l0.6,0.3c-1,1.8-2.9,2.9-5.4,2.9
			c-3.9,0-6.2-2.4-6.2-6.5s2.2-6.5,6-6.5c3.6,0,5.7,2.5,5.7,6.4C128.4,160.1,128.3,160.3,128.3,160.4z M117.4,159.8h10.3
			c-0.1-3.5-1.9-5.6-5-5.6C119.4,154.2,117.5,156.3,117.4,159.8z"/>
		<path class="st7" d="M154.3,157.8c0,5.5-3,8.4-8.7,8.4h-5.5v-16.4h5.5C151.3,149.8,154.3,152.6,154.3,157.8z M153.5,157.8
			c0-4.8-2.7-7.4-7.9-7.4h-4.7v15.2h4.7C150.8,165.6,153.5,162.9,153.5,157.8z"/>
		<path class="st7" d="M169.7,165.7l-0.1,0.6c-0.3,0.1-0.6,0.2-1.1,0.2c-1,0-2-0.4-2-2.4c-0.8,1.6-3.1,2.4-5.2,2.4
			c-2.6,0-4.2-1.1-4.2-3c0-1.9,1.5-3.1,5-3.7l4.5-0.8v-1.4c0-2.2-1.4-3.5-4-3.5c-2.3,0-3.8,0.8-4.6,2.8l-0.6-0.4c0.8-2,2.5-3,5.2-3
			c3,0,4.8,1.4,4.8,4.1v6.7c0,1.1,0.5,1.6,1.4,1.6C169.1,165.9,169.5,165.9,169.7,165.7z M166.6,162.4v-2.8l-4.2,0.7
			c-3.3,0.5-4.5,1.5-4.5,3.1c0,1.5,1.3,2.4,3.6,2.4C163.6,165.9,166.6,164.8,166.6,162.4z"/>
		<path class="st7" d="M178.6,165.5c-0.6,0.5-1.6,1-2.7,1c-2.1,0-3.3-1.1-3.3-3.4v-8.7h-2.7v-0.6h2.7v-3.2l0.7-0.2v3.4h5.1v0.6h-5.1
			v8.7c0,1.8,0.9,2.8,2.6,2.8c1,0,1.7-0.3,2.3-0.9L178.6,165.5z"/>
		<path class="st7" d="M192.6,165.7l-0.1,0.6c-0.3,0.1-0.6,0.2-1.1,0.2c-1,0-2-0.4-2-2.4c-0.8,1.6-3.1,2.4-5.2,2.4
			c-2.6,0-4.2-1.1-4.2-3c0-1.9,1.5-3.1,5-3.7l4.5-0.8v-1.4c0-2.2-1.4-3.5-4-3.5c-2.3,0-3.8,0.8-4.6,2.8l-0.6-0.4c0.8-2,2.5-3,5.2-3
			c3,0,4.8,1.4,4.8,4.1v6.7c0,1.1,0.5,1.6,1.4,1.6C192,165.9,192.4,165.9,192.6,165.7z M189.5,162.4v-2.8l-4.2,0.7
			c-3.3,0.5-4.5,1.5-4.5,3.1c0,1.5,1.3,2.4,3.6,2.4C186.5,165.9,189.5,164.8,189.5,162.4z"/>
		<path class="st7" d="M207.1,160c0,4.1-2.3,6.5-6.1,6.5c-2.6,0-4.6-1.3-5.2-3.6l0,3.4h-0.7v-18.2h0.7v9c0.7-2.2,2.7-3.5,5.2-3.5
			C204.8,153.6,207.1,156,207.1,160z M206.4,160c0-3.7-2-5.9-5.5-5.9c-3.1,0-5.1,2.2-5.1,5.8v0.2c0,3.6,2,5.8,5.1,5.8
			C204.4,165.9,206.4,163.7,206.4,160z"/>
		<path class="st7" d="M222.4,165.7l-0.1,0.6c-0.3,0.1-0.6,0.2-1.1,0.2c-1,0-2-0.4-2-2.4c-0.8,1.6-3.1,2.4-5.2,2.4
			c-2.6,0-4.2-1.1-4.2-3c0-1.9,1.5-3.1,5-3.7l4.5-0.8v-1.4c0-2.2-1.4-3.5-4-3.5c-2.3,0-3.8,0.8-4.6,2.8l-0.6-0.4c0.8-2,2.5-3,5.2-3
			c3,0,4.8,1.4,4.8,4.1v6.7c0,1.1,0.5,1.6,1.4,1.6C221.8,165.9,222.2,165.9,222.4,165.7z M219.3,162.4v-2.8l-4.2,0.7
			c-3.3,0.5-4.5,1.5-4.5,3.1c0,1.5,1.3,2.4,3.6,2.4C216.3,165.9,219.3,164.8,219.3,162.4z"/>
		<path class="st7" d="M223.6,163.5l0.6-0.3c0.5,1.8,2.4,2.7,4.9,2.7c2.7,0,4.4-1.1,4.4-2.8c0-1.4-1.1-2.2-4.3-2.7
			c-3.8-0.6-5-1.5-5-3.4c0-1.9,2.1-3.5,5-3.5c2.7,0,4.4,0.9,5,3.1l-0.6,0.3c-0.5-2-2-2.8-4.3-2.8c-2.5,0-4.2,1.2-4.2,2.7
			c0,1.5,1.1,2.3,4.5,2.9c3.6,0.6,4.9,1.5,4.9,3.3c0,2.1-2,3.4-5.2,3.4C226.4,166.5,224.2,165.5,223.6,163.5z"/>
		<path class="st7" d="M248.6,160.4h-10.9c0.1,3.4,2.1,5.5,5.4,5.5c2.2,0,4-1,4.8-2.6l0.6,0.3c-1,1.8-2.9,2.9-5.4,2.9
			c-3.9,0-6.2-2.4-6.2-6.5s2.2-6.5,6-6.5c3.6,0,5.7,2.5,5.7,6.4C248.7,160.1,248.6,160.3,248.6,160.4z M237.7,159.8H248
			c-0.1-3.5-1.9-5.6-5-5.6C239.7,154.2,237.8,156.3,237.7,159.8z"/>
	</g>
</g>
</svg>
